# Blender 4.3.0
# www.blender.org
mtllib atap.mtl
o roof_shade_Roof_0.008
v 17.692158 28.267443 -19.434792
v 0.276906 28.073940 -19.434792
v 17.692158 28.073940 -19.434792
v 0.276906 28.267443 -19.434792
v 0.276906 28.267443 -19.434792
v 0.276906 28.073942 -36.850048
v 0.276906 28.073940 -19.434792
v 0.276906 28.267447 -36.850048
v 0.276906 28.267447 -36.850048
v 17.692158 28.073942 -36.850048
v 0.276906 28.073942 -36.850048
v 17.692158 28.267447 -36.850048
v 17.692158 28.267447 -36.850048
v 17.692158 28.073940 -19.434792
v 17.692158 28.073942 -36.850048
v 17.692158 28.267443 -19.434792
v 0.276906 28.073942 -36.850048
v 17.692158 28.073940 -19.434792
v 0.276906 28.073940 -19.434792
v 17.692158 28.073942 -36.850048
vn -0.0000 -0.0000 1.0000
vn -1.0000 -0.0000 -0.0000
vn -0.0000 -0.0000 -1.0000
vn 1.0000 -0.0000 -0.0000
vn -0.0000 -1.0000 -0.0000
vt 1.500109 -0.692724
vt -0.699591 -0.692725
vt -0.699591 1.506975
vt 1.500108 1.506975
s 0
usemtl Roof.008
f 1/1/1 2/2/1 3/1/1
f 1/1/1 4/2/1 2/2/1
f 5/2/2 6/3/2 7/2/2
f 5/2/2 8/3/2 6/3/2
f 9/3/3 10/4/3 11/3/3
f 9/3/3 12/4/3 10/4/3
f 13/4/4 14/1/4 15/4/4
f 13/4/4 16/1/4 14/1/4
f 17/3/5 18/1/5 19/2/5
f 17/3/5 20/4/5 18/1/5
o roof_shade_Roof_0.009
v 34.772163 28.267443 -19.434792
v 17.356915 28.073940 -19.434792
v 34.772163 28.073940 -19.434792
v 17.356915 28.267443 -19.434792
v 17.356915 28.267443 -19.434792
v 17.356915 28.073942 -36.850048
v 17.356915 28.073940 -19.434792
v 17.356915 28.267447 -36.850048
v 17.356915 28.267447 -36.850048
v 34.772163 28.073942 -36.850048
v 17.356915 28.073942 -36.850048
v 34.772163 28.267447 -36.850048
v 34.772163 28.267447 -36.850048
v 34.772163 28.073940 -19.434792
v 34.772163 28.073942 -36.850048
v 34.772163 28.267443 -19.434792
v 17.356915 28.073942 -36.850048
v 34.772163 28.073940 -19.434792
v 17.356915 28.073940 -19.434792
v 34.772163 28.073942 -36.850048
vn -0.0000 -0.0000 1.0000
vn -1.0000 -0.0000 -0.0000
vn -0.0000 -0.0000 -1.0000
vn 1.0000 -0.0000 -0.0000
vn -0.0000 -1.0000 -0.0000
vt 1.500109 -0.692724
vt -0.699591 -0.692725
vt -0.699591 1.506975
vt 1.500108 1.506975
s 0
usemtl Roof.009
f 21/5/6 22/6/6 23/5/6
f 21/5/6 24/6/6 22/6/6
f 25/6/7 26/7/7 27/6/7
f 25/6/7 28/7/7 26/7/7
f 29/7/8 30/8/8 31/7/8
f 29/7/8 32/8/8 30/8/8
f 33/8/9 34/5/9 35/8/9
f 33/8/9 36/5/9 34/5/9
f 37/7/10 38/5/10 39/6/10
f 37/7/10 40/8/10 38/5/10
o roof_shade_Roof_0
v 34.772163 28.267443 15.241339
v 17.356915 28.073940 15.241339
v 34.772163 28.073940 15.241339
v 17.356915 28.267443 15.241339
v 17.356915 28.267443 15.241339
v 17.356915 28.073942 -2.173919
v 17.356915 28.073940 15.241339
v 17.356915 28.267447 -2.173919
v 17.356915 28.267447 -2.173919
v 34.772163 28.073942 -2.173919
v 17.356915 28.073942 -2.173919
v 34.772163 28.267447 -2.173919
v 34.772163 28.267447 -2.173919
v 34.772163 28.073940 15.241339
v 34.772163 28.073942 -2.173919
v 34.772163 28.267443 15.241339
v 17.356915 28.073942 -2.173919
v 34.772163 28.073940 15.241339
v 17.356915 28.073940 15.241339
v 34.772163 28.073942 -2.173919
vn -0.0000 -0.0000 1.0000
vn -1.0000 -0.0000 -0.0000
vn -0.0000 -0.0000 -1.0000
vn 1.0000 -0.0000 -0.0000
vn -0.0000 -1.0000 -0.0000
vt 1.500109 -0.692724
vt -0.699591 -0.692725
vt -0.699591 1.506975
vt 1.500108 1.506975
s 0
usemtl Roof
f 41/9/11 42/10/11 43/9/11
f 41/9/11 44/10/11 42/10/11
f 45/10/12 46/11/12 47/10/12
f 45/10/12 48/11/12 46/11/12
f 49/11/13 50/12/13 51/11/13
f 49/11/13 52/12/13 50/12/13
f 53/12/14 54/9/14 55/12/14
f 53/12/14 56/9/14 54/9/14
f 57/11/15 58/9/15 59/10/15
f 57/11/15 60/12/15 58/9/15
o roof_shade_Roof_0.001
v 34.772163 28.267443 -2.110379
v 17.356915 28.073940 -2.110379
v 34.772163 28.073940 -2.110379
v 17.356915 28.267443 -2.110379
v 17.356915 28.267443 -2.110379
v 17.356915 28.073942 -19.525639
v 17.356915 28.073940 -2.110379
v 17.356915 28.267447 -19.525639
v 17.356915 28.267447 -19.525639
v 34.772163 28.073942 -19.525639
v 17.356915 28.073942 -19.525639
v 34.772163 28.267447 -19.525639
v 34.772163 28.267447 -19.525639
v 34.772163 28.073940 -2.110379
v 34.772163 28.073942 -19.525639
v 34.772163 28.267443 -2.110379
v 17.356915 28.073942 -19.525639
v 34.772163 28.073940 -2.110379
v 17.356915 28.073940 -2.110379
v 34.772163 28.073942 -19.525639
vn -0.0000 -0.0000 1.0000
vn -1.0000 -0.0000 -0.0000
vn -0.0000 -0.0000 -1.0000
vn 1.0000 -0.0000 -0.0000
vn -0.0000 -1.0000 -0.0000
vt 1.500109 -0.692724
vt -0.699591 -0.692725
vt -0.699591 1.506975
vt 1.500108 1.506975
s 0
usemtl Roof.001
f 61/13/16 62/14/16 63/13/16
f 61/13/16 64/14/16 62/14/16
f 65/14/17 66/15/17 67/14/17
f 65/14/17 68/15/17 66/15/17
f 69/15/18 70/16/18 71/15/18
f 69/15/18 72/16/18 70/16/18
f 73/16/19 74/13/19 75/16/19
f 73/16/19 76/13/19 74/13/19
f 77/15/20 78/13/20 79/14/20
f 77/15/20 80/16/20 78/13/20
o roof_shade_Roof_0.002
v 17.692158 28.267443 -2.110379
v 0.276906 28.073940 -2.110379
v 17.692158 28.073940 -2.110379
v 0.276906 28.267443 -2.110379
v 0.276906 28.267443 -2.110379
v 0.276906 28.073942 -19.525639
v 0.276906 28.073940 -2.110379
v 0.276906 28.267447 -19.525639
v 0.276906 28.267447 -19.525639
v 17.692158 28.073942 -19.525639
v 0.276906 28.073942 -19.525639
v 17.692158 28.267447 -19.525639
v 17.692158 28.267447 -19.525639
v 17.692158 28.073940 -2.110379
v 17.692158 28.073942 -19.525639
v 17.692158 28.267443 -2.110379
v 0.276906 28.073942 -19.525639
v 17.692158 28.073940 -2.110379
v 0.276906 28.073940 -2.110379
v 17.692158 28.073942 -19.525639
vn -0.0000 -0.0000 1.0000
vn -1.0000 -0.0000 -0.0000
vn -0.0000 -0.0000 -1.0000
vn 1.0000 -0.0000 -0.0000
vn -0.0000 -1.0000 -0.0000
vt 1.500109 -0.692724
vt -0.699591 -0.692725
vt -0.699591 1.506975
vt 1.500108 1.506975
s 0
usemtl Roof.002
f 81/17/21 82/18/21 83/17/21
f 81/17/21 84/18/21 82/18/21
f 85/18/22 86/19/22 87/18/22
f 85/18/22 88/19/22 86/19/22
f 89/19/23 90/20/23 91/19/23
f 89/19/23 92/20/23 90/20/23
f 93/20/24 94/17/24 95/20/24
f 93/20/24 96/17/24 94/17/24
f 97/19/25 98/17/25 99/18/25
f 97/19/25 100/20/25 98/17/25
o roof_shade_Roof_0.003
v 17.692158 28.267443 15.241339
v 0.276906 28.073940 15.241339
v 17.692158 28.073940 15.241339
v 0.276906 28.267443 15.241339
v 0.276906 28.267443 15.241339
v 0.276906 28.073942 -2.173919
v 0.276906 28.073940 15.241339
v 0.276906 28.267447 -2.173919
v 0.276906 28.267447 -2.173919
v 17.692158 28.073942 -2.173919
v 0.276906 28.073942 -2.173919
v 17.692158 28.267447 -2.173919
v 17.692158 28.267447 -2.173919
v 17.692158 28.073940 15.241339
v 17.692158 28.073942 -2.173919
v 17.692158 28.267443 15.241339
v 0.276906 28.073942 -2.173919
v 17.692158 28.073940 15.241339
v 0.276906 28.073940 15.241339
v 17.692158 28.073942 -2.173919
vn -0.0000 -0.0000 1.0000
vn -1.0000 -0.0000 -0.0000
vn -0.0000 -0.0000 -1.0000
vn 1.0000 -0.0000 -0.0000
vn -0.0000 -1.0000 -0.0000
vt 1.500109 -0.692724
vt -0.699591 -0.692725
vt -0.699591 1.506975
vt 1.500108 1.506975
s 0
usemtl Roof.003
f 101/21/26 102/22/26 103/21/26
f 101/21/26 104/22/26 102/22/26
f 105/22/27 106/23/27 107/22/27
f 105/22/27 108/23/27 106/23/27
f 109/23/28 110/24/28 111/23/28
f 109/23/28 112/24/28 110/24/28
f 113/24/29 114/21/29 115/24/29
f 113/24/29 116/21/29 114/21/29
f 117/23/30 118/21/30 119/22/30
f 117/23/30 120/24/30 118/21/30
o roof_shade_Roof_0.004
v 0.780440 28.267443 15.241339
v -16.634811 28.073940 15.241339
v 0.780440 28.073940 15.241339
v -16.634811 28.267443 15.241339
v -16.634811 28.267443 15.241339
v -16.634811 28.073942 -2.173919
v -16.634811 28.073940 15.241339
v -16.634811 28.267447 -2.173919
v -16.634811 28.267447 -2.173919
v 0.780440 28.073942 -2.173919
v -16.634811 28.073942 -2.173919
v 0.780440 28.267447 -2.173919
v 0.780440 28.267447 -2.173919
v 0.780440 28.073940 15.241339
v 0.780440 28.073942 -2.173919
v 0.780440 28.267443 15.241339
v -16.634811 28.073942 -2.173919
v 0.780440 28.073940 15.241339
v -16.634811 28.073940 15.241339
v 0.780440 28.073942 -2.173919
vn -0.0000 -0.0000 1.0000
vn -1.0000 -0.0000 -0.0000
vn -0.0000 -0.0000 -1.0000
vn 1.0000 -0.0000 -0.0000
vn -0.0000 -1.0000 -0.0000
vt 1.500109 -0.692724
vt -0.699591 -0.692725
vt -0.699591 1.506975
vt 1.500108 1.506975
s 0
usemtl Roof.004
f 121/25/31 122/26/31 123/25/31
f 121/25/31 124/26/31 122/26/31
f 125/26/32 126/27/32 127/26/32
f 125/26/32 128/27/32 126/27/32
f 129/27/33 130/28/33 131/27/33
f 129/27/33 132/28/33 130/28/33
f 133/28/34 134/25/34 135/28/34
f 133/28/34 136/25/34 134/25/34
f 137/27/35 138/25/35 139/26/35
f 137/27/35 140/28/35 138/25/35
o roof_shade_Roof_0.005
v 0.780440 28.267443 -2.110379
v -16.634811 28.073940 -2.110379
v 0.780440 28.073940 -2.110379
v -16.634811 28.267443 -2.110379
v -16.634811 28.267443 -2.110379
v -16.634811 28.073942 -19.525639
v -16.634811 28.073940 -2.110379
v -16.634811 28.267447 -19.525639
v -16.634811 28.267447 -19.525639
v 0.780440 28.073942 -19.525639
v -16.634811 28.073942 -19.525639
v 0.780440 28.267447 -19.525639
v 0.780440 28.267447 -19.525639
v 0.780440 28.073940 -2.110379
v 0.780440 28.073942 -19.525639
v 0.780440 28.267443 -2.110379
v -16.634811 28.073942 -19.525639
v 0.780440 28.073940 -2.110379
v -16.634811 28.073940 -2.110379
v 0.780440 28.073942 -19.525639
vn -0.0000 -0.0000 1.0000
vn -1.0000 -0.0000 -0.0000
vn -0.0000 -0.0000 -1.0000
vn 1.0000 -0.0000 -0.0000
vn -0.0000 -1.0000 -0.0000
vt 1.500109 -0.692724
vt -0.699591 -0.692725
vt -0.699591 1.506975
vt 1.500108 1.506975
s 0
usemtl Roof.005
f 141/29/36 142/30/36 143/29/36
f 141/29/36 144/30/36 142/30/36
f 145/30/37 146/31/37 147/30/37
f 145/30/37 148/31/37 146/31/37
f 149/31/38 150/32/38 151/31/38
f 149/31/38 152/32/38 150/32/38
f 153/32/39 154/29/39 155/32/39
f 153/32/39 156/29/39 154/29/39
f 157/31/40 158/29/40 159/30/40
f 157/31/40 160/32/40 158/29/40
o roof_shade_Roof_0.006
v -16.517593 28.267443 -2.110379
v -33.932846 28.073940 -2.110379
v -16.517593 28.073940 -2.110379
v -33.932846 28.267443 -2.110379
v -33.932846 28.267443 -2.110379
v -33.932846 28.073942 -19.525639
v -33.932846 28.073940 -2.110379
v -33.932846 28.267447 -19.525639
v -33.932846 28.267447 -19.525639
v -16.517593 28.073942 -19.525639
v -33.932846 28.073942 -19.525639
v -16.517593 28.267447 -19.525639
v -16.517593 28.267447 -19.525639
v -16.517593 28.073940 -2.110379
v -16.517593 28.073942 -19.525639
v -16.517593 28.267443 -2.110379
v -33.932846 28.073942 -19.525639
v -16.517593 28.073940 -2.110379
v -33.932846 28.073940 -2.110379
v -16.517593 28.073942 -19.525639
vn -0.0000 -0.0000 1.0000
vn -1.0000 -0.0000 -0.0000
vn -0.0000 -0.0000 -1.0000
vn 1.0000 -0.0000 -0.0000
vn -0.0000 -1.0000 -0.0000
vt 1.500109 -0.692724
vt -0.699591 -0.692725
vt -0.699591 1.506975
vt 1.500108 1.506975
s 0
usemtl Roof.006
f 161/33/41 162/34/41 163/33/41
f 161/33/41 164/34/41 162/34/41
f 165/34/42 166/35/42 167/34/42
f 165/34/42 168/35/42 166/35/42
f 169/35/43 170/36/43 171/35/43
f 169/35/43 172/36/43 170/36/43
f 173/36/44 174/33/44 175/36/44
f 173/36/44 176/33/44 174/33/44
f 177/35/45 178/33/45 179/34/45
f 177/35/45 180/36/45 178/33/45
o roof_shade_Roof_0.007
v -16.517593 28.267443 15.241339
v -33.932846 28.073940 15.241339
v -16.517593 28.073940 15.241339
v -33.932846 28.267443 15.241339
v -33.932846 28.267443 15.241339
v -33.932846 28.073942 -2.173919
v -33.932846 28.073940 15.241339
v -33.932846 28.267447 -2.173919
v -33.932846 28.267447 -2.173919
v -16.517593 28.073942 -2.173919
v -33.932846 28.073942 -2.173919
v -16.517593 28.267447 -2.173919
v -16.517593 28.267447 -2.173919
v -16.517593 28.073940 15.241339
v -16.517593 28.073942 -2.173919
v -16.517593 28.267443 15.241339
v -33.932846 28.073942 -2.173919
v -16.517593 28.073940 15.241339
v -33.932846 28.073940 15.241339
v -16.517593 28.073942 -2.173919
vn -0.0000 -0.0000 1.0000
vn -1.0000 -0.0000 -0.0000
vn -0.0000 -0.0000 -1.0000
vn 1.0000 -0.0000 -0.0000
vn -0.0000 -1.0000 -0.0000
vt 1.500109 -0.692724
vt -0.699591 -0.692725
vt -0.699591 1.506975
vt 1.500108 1.506975
s 0
usemtl Roof.007
f 181/37/46 182/38/46 183/37/46
f 181/37/46 184/38/46 182/38/46
f 185/38/47 186/39/47 187/38/47
f 185/38/47 188/39/47 186/39/47
f 189/39/48 190/40/48 191/39/48
f 189/39/48 192/40/48 190/40/48
f 193/40/49 194/37/49 195/40/49
f 193/40/49 196/37/49 194/37/49
f 197/39/50 198/37/50 199/38/50
f 197/39/50 200/40/50 198/37/50
