# Blender 4.3.0
# www.blender.org
mtllib beltconveyor.mtl
o Conveyor01Belt_Belt_0
v 42.184738 0.671425 5.450429
v 41.466053 0.638962 5.450429
v 41.466053 0.638962 -2.008847
v 42.184738 0.671425 -2.008847
v 42.845036 0.761976 -2.008847
v 42.845036 0.761976 5.450429
v 43.428970 0.902076 -2.008847
v 43.428970 0.902076 5.450428
v 43.918579 1.088306 -2.008847
v 43.918579 1.088306 5.450428
v 44.286903 1.310415 -2.008847
v 44.286907 1.310415 5.450428
v 44.524967 1.561569 -2.008847
v 44.524971 1.561569 5.450428
v 44.610313 1.834933 -2.008847
v 44.610317 1.834933 5.450428
v 44.524967 2.110008 -2.008847
v 44.524971 2.110008 5.450428
v 44.286903 2.361162 -2.008847
v 44.286907 2.361162 5.450428
v 43.918575 2.583270 -2.008847
v 43.918579 2.583270 5.450428
v 43.428970 2.767792 5.450428
v 43.428967 2.767792 -2.008847
v 42.845036 2.909600 5.450429
v 42.845032 2.909600 -2.008847
v 42.184734 3.000153 -2.008847
v 42.184738 3.000153 5.450429
v 41.466049 3.030907 -2.008847
v 41.466053 3.030907 5.450429
v -42.099518 3.030895 -2.008835
v -42.099514 3.030895 5.450440
v -42.822697 3.000141 5.450440
v -42.822701 3.000141 -2.008835
v -43.482994 2.909589 -2.008835
v -43.482990 2.909589 5.450440
v -44.066925 2.767780 5.450440
v -44.066929 2.767780 -2.008835
v -44.556538 2.583259 -2.008835
v -44.556534 2.583259 5.450440
v -44.924866 2.361151 -2.008835
v -44.924862 2.361151 5.450440
v -45.162930 2.109997 -2.008835
v -45.162926 2.109997 5.450440
v -45.243786 1.834922 -2.008835
v -45.243782 1.834922 5.450440
v -45.162930 1.561558 -2.008835
v -45.162926 1.561558 5.450440
v -44.924866 1.310404 -2.008835
v -44.924862 1.310404 5.450440
v -44.556534 1.088295 -2.008835
v -44.556534 1.088295 5.450440
v -44.066925 0.902064 -2.008835
v -44.066925 0.902064 5.450440
v -43.482990 0.761965 -2.008835
v -43.482990 0.761965 5.450440
v -42.822697 0.671413 5.450440
v -42.822697 0.671413 -2.008835
v -42.099514 0.638950 -2.008835
v -42.099514 0.638950 5.450440
v 41.466053 0.638962 -2.008847
v 41.466053 0.638962 5.450429
v -42.099514 0.638950 5.450440
v -42.099514 0.638950 -2.008835
vn 0.0884 -0.9961 -0.0000
vn 0.0219 -0.9998 -0.0000
vn 0.1830 -0.9831 -0.0000
vn 0.2918 -0.9565 -0.0000
vn 0.4285 -0.9035 -0.0000
vn 0.6136 -0.7896 -0.0000
vn 0.8524 -0.5228 -0.0000
vn 0.8524 -0.5229 -0.0000
vn 1.0000 -0.0010 -0.0000
vn 1.0000 -0.0000 -0.0000
vn 0.8524 0.5229 -0.0000
vn 0.6137 0.7896 -0.0000
vn 0.6136 0.7896 -0.0000
vn 0.4282 0.9037 -0.0000
vn 0.2918 0.9565 -0.0000
vn 0.1830 0.9831 -0.0000
vn 0.0883 0.9961 -0.0000
vn 0.0219 0.9998 -0.0000
vn -0.0218 0.9998 -0.0000
vn -0.0219 0.9998 -0.0000
vn -0.0884 0.9961 -0.0000
vn -0.0883 0.9961 -0.0000
vn -0.1830 0.9831 -0.0000
vn -0.2918 0.9565 -0.0000
vn -0.4282 0.9037 -0.0000
vn -0.6137 0.7895 -0.0000
vn -0.8526 0.5226 -0.0000
vn -0.8524 0.5228 -0.0000
vn -1.0000 -0.0000 -0.0000
vn -0.8526 -0.5226 -0.0000
vn -0.6136 -0.7896 -0.0000
vn -0.4285 -0.9035 -0.0000
vn -0.2918 -0.9565 -0.0000
vn -0.1830 -0.9831 -0.0000
vn -0.0884 -0.9961 -0.0000
vn -0.0219 -0.9998 -0.0000
vt 0.293700 0.008600
vt 0.293700 0.001500
vt 0.007200 0.001500
vt 0.007200 0.008600
vt 0.007200 0.015100
vt 0.293700 0.015100
vt 0.007200 0.020800
vt 0.293700 0.020800
vt 0.007200 0.025600
vt 0.293700 0.025600
vt 0.007200 0.031300
vt 0.293700 0.031300
vt 0.007200 0.037800
vt 0.293700 0.037800
vt 0.007200 0.044900
vt 0.293700 0.044900
vt 0.007200 0.052000
vt 0.293700 0.052000
vt 0.007200 0.058500
vt 0.293700 0.058500
vt 0.007200 0.064200
vt 0.293700 0.064200
vt 0.293700 0.069000
vt 0.007200 0.069000
vt 0.293700 0.074700
vt 0.007200 0.074700
vt 0.007200 0.081200
vt 0.293700 0.081200
vt 0.007200 0.088300
vt 0.293700 0.088300
vt 0.007200 0.908100
vt 0.293700 0.908100
vt 0.293700 0.915100
vt 0.007200 0.915100
vt 0.007200 0.921600
vt 0.293700 0.921600
vt 0.293700 0.927300
vt 0.007200 0.927300
vt 0.007200 0.932100
vt 0.293700 0.932100
vt 0.007200 0.937900
vt 0.293700 0.937900
vt 0.007200 0.944300
vt 0.293700 0.944300
vt 0.007200 0.951400
vt 0.293700 0.951400
vt 0.007200 0.958500
vt 0.293700 0.958500
vt 0.007200 0.965000
vt 0.293700 0.965000
vt 0.007200 0.970700
vt 0.293700 0.970700
vt 0.007200 0.975500
vt 0.293700 0.975500
vt 0.007200 0.981200
vt 0.293700 0.981200
vt 0.293700 0.987700
vt 0.007200 0.987700
vt 0.007200 0.994800
vt 0.293700 0.994800
vt 0.293800 0.899900
vt 0.577400 0.899900
vt 0.577400 0.088300
vt 0.293800 0.088300
s 1
usemtl Belt
f 1/1/1 2/2/2 3/3/2
f 3/3/2 4/4/1 1/1/1
f 4/4/1 5/5/3 6/6/3
f 6/6/3 1/1/1 4/4/1
f 7/7/4 8/8/4 6/6/3
f 6/6/3 5/5/3 7/7/4
f 9/9/5 10/10/5 8/8/4
f 8/8/4 7/7/4 9/9/5
f 11/11/6 12/12/6 10/10/5
f 10/10/5 9/9/5 11/11/6
f 13/13/7 14/14/8 12/12/6
f 12/12/6 11/11/6 13/13/7
f 13/13/7 15/15/9 16/16/10
f 16/16/10 14/14/8 13/13/7
f 15/15/9 17/17/11 18/18/11
f 18/18/11 16/16/10 15/15/9
f 17/17/11 19/19/12 20/20/13
f 20/20/13 18/18/11 17/17/11
f 21/21/14 22/22/14 20/20/13
f 20/20/13 19/19/12 21/21/14
f 23/23/15 22/22/14 21/21/14
f 21/21/14 24/24/15 23/23/15
f 25/25/16 23/23/15 24/24/15
f 24/24/15 26/26/16 25/25/16
f 27/27/17 28/28/17 25/25/16
f 25/25/16 26/26/16 27/27/17
f 28/28/17 27/27/17 29/29/18
f 29/29/18 30/30/18 28/28/17
f 31/31/19 32/32/20 30/30/18
f 30/30/18 29/29/18 31/31/19
f 33/33/21 32/32/20 31/31/19
f 31/31/19 34/34/22 33/33/21
f 35/35/23 36/36/23 33/33/21
f 33/33/21 34/34/22 35/35/23
f 37/37/24 36/36/23 35/35/23
f 35/35/23 38/38/24 37/37/24
f 38/38/24 39/39/25 40/40/25
f 40/40/25 37/37/24 38/38/24
f 41/41/26 42/42/26 40/40/25
f 40/40/25 39/39/25 41/41/26
f 43/43/27 44/44/28 42/42/26
f 42/42/26 41/41/26 43/43/27
f 45/45/29 46/46/29 44/44/28
f 44/44/28 43/43/27 45/45/29
f 47/47/30 48/48/30 46/46/29
f 46/46/29 45/45/29 47/47/30
f 47/47/30 49/49/31 50/50/31
f 50/50/31 48/48/30 47/47/30
f 49/49/31 51/51/32 52/52/32
f 52/52/32 50/50/31 49/49/31
f 51/51/32 53/53/33 54/54/33
f 54/54/33 52/52/32 51/51/32
f 55/55/34 56/56/34 54/54/33
f 54/54/33 53/53/33 55/55/34
f 57/57/35 56/56/34 55/55/34
f 55/55/34 58/58/35 57/57/35
f 59/59/36 60/60/36 57/57/35
f 57/57/35 58/58/35 59/59/36
f 61/61/2 62/62/2 63/63/36
f 63/63/36 64/64/36 61/61/2
