# Blender 4.3.0
# www.blender.org
mtllib conveyornobelt.mtl
o Conveyor01Belt_Belt_0
v -5.939136 5.449512 9.572124
v -5.939136 5.432298 9.427155
v -0.049762 5.432298 9.427155
v -0.049762 5.449512 9.572124
v -0.049762 5.497534 9.705314
v -5.939136 5.497534 9.705314
v -0.049762 5.571830 9.823102
v -5.939136 5.571830 9.823102
v -0.049762 5.670591 9.921862
v -5.939136 5.670591 9.921862
v -0.049762 5.788379 9.996159
v -5.939136 5.788379 9.996159
v -0.049762 5.921569 10.044180
v -5.939136 5.921569 10.044180
v -0.049762 6.066538 10.061395
v -5.939136 6.066538 10.061395
v -0.049762 6.212414 10.044180
v -5.939136 6.212414 10.044180
v -0.049762 6.345604 9.996159
v -5.939136 6.345604 9.996159
v -0.049762 6.463391 9.921862
v -5.939136 6.463391 9.921862
v -5.939136 6.561245 9.823102
v -0.049762 6.561245 9.823102
v -5.939136 6.636448 9.705314
v -0.049762 6.636448 9.705314
v -0.049762 6.684469 9.572124
v -5.939136 6.684469 9.572124
v -0.049762 6.700779 9.427155
v -5.939136 6.700779 9.427155
v -0.049762 6.700777 -7.429143
v -5.939136 6.700777 -7.429143
v -5.939136 6.684467 -7.575018
v -0.049762 6.684467 -7.575018
v -0.049762 6.636446 -7.708209
v -5.939136 6.636446 -7.708209
v -5.939136 6.561243 -7.825997
v -0.049762 6.561243 -7.825997
v -0.049762 6.463388 -7.924757
v -5.939136 6.463388 -7.924757
v -0.049762 6.345601 -7.999053
v -5.939136 6.345601 -7.999053
v -0.049762 6.212411 -8.047075
v -5.939136 6.212411 -8.047075
v -0.049762 6.066535 -8.063385
v -5.939136 6.066535 -8.063385
v -0.049762 5.921566 -8.047075
v -5.939136 5.921566 -8.047075
v -0.049762 5.788376 -7.999053
v -5.939136 5.788376 -7.999053
v -0.049762 5.670588 -7.924757
v -5.939136 5.670588 -7.924757
v -0.049762 5.571828 -7.825997
v -5.939136 5.571828 -7.825997
v -0.049762 5.497532 -7.708209
v -5.939136 5.497532 -7.708209
v -5.939136 5.449511 -7.575018
v -0.049762 5.449511 -7.575018
v -0.049762 5.432296 -7.429143
v -5.939136 5.432296 -7.429143
v -0.049762 5.432298 9.427155
v -5.939136 5.432298 9.427155
v -5.939136 5.432296 -7.429143
v -0.049762 5.432296 -7.429143
vn -0.0000 -0.9738 0.2272
vn -0.0000 -0.9984 0.0574
vn -0.0000 -0.9983 0.0574
vn -0.0000 -0.8982 0.4396
vn -0.0000 -0.7801 0.6257
vn -0.0000 -0.7801 0.6256
vn -0.0000 -0.6257 0.7801
vn -0.0000 -0.6256 0.7801
vn -0.0000 -0.4396 0.8982
vn -0.0000 -0.2272 0.9738
vn -0.0000 -0.0004 1.0000
vn -0.0000 -0.0000 1.0000
vn -0.0000 0.2272 0.9738
vn -0.0000 0.4396 0.8982
vn -0.0000 0.6260 0.7798
vn -0.0000 0.7801 0.6257
vn -0.0000 0.7801 0.6256
vn -0.0000 0.8982 0.4395
vn -0.0000 0.9739 0.2270
vn -0.0000 0.9984 0.0574
vn -0.0000 0.9984 -0.0574
vn -0.0000 0.9983 -0.0575
vn -0.0000 0.9739 -0.2272
vn -0.0000 0.9739 -0.2270
vn -0.0000 0.8982 -0.4395
vn -0.0000 0.7801 -0.6256
vn -0.0000 0.7801 -0.6257
vn -0.0000 0.6260 -0.7798
vn -0.0000 0.4395 -0.8982
vn -0.0000 0.2270 -0.9739
vn -0.0000 0.2272 -0.9739
vn -0.0000 -0.0000 -1.0000
vn -0.0000 -0.2270 -0.9739
vn -0.0000 -0.4396 -0.8982
vn -0.0000 -0.6257 -0.7801
vn -0.0000 -0.6256 -0.7801
vn -0.0000 -0.7801 -0.6257
vn -0.0000 -0.8982 -0.4396
vn -0.0000 -0.9739 -0.2272
vn -0.0000 -0.9738 -0.2272
vn -0.0000 -0.9983 -0.0574
vn -0.0000 -0.9984 -0.0574
vt 0.293700 0.008600
vt 0.293700 0.001500
vt 0.007200 0.001500
vt 0.007200 0.008600
vt 0.007200 0.015100
vt 0.293700 0.015100
vt 0.007200 0.020800
vt 0.293700 0.020800
vt 0.007200 0.025600
vt 0.293700 0.025600
vt 0.007200 0.031300
vt 0.293700 0.031300
vt 0.007200 0.037800
vt 0.293700 0.037800
vt 0.007200 0.044900
vt 0.293700 0.044900
vt 0.007200 0.052000
vt 0.293700 0.052000
vt 0.007200 0.058500
vt 0.293700 0.058500
vt 0.007200 0.064200
vt 0.293700 0.064200
vt 0.293700 0.069000
vt 0.007200 0.069000
vt 0.293700 0.074700
vt 0.007200 0.074700
vt 0.007200 0.081200
vt 0.293700 0.081200
vt 0.007200 0.088300
vt 0.293700 0.088300
vt 0.007200 0.908100
vt 0.293700 0.908100
vt 0.293700 0.915100
vt 0.007200 0.915100
vt 0.007200 0.921600
vt 0.293700 0.921600
vt 0.293700 0.927300
vt 0.007200 0.927300
vt 0.007200 0.932100
vt 0.293700 0.932100
vt 0.007200 0.937900
vt 0.293700 0.937900
vt 0.007200 0.944300
vt 0.293700 0.944300
vt 0.007200 0.951400
vt 0.293700 0.951400
vt 0.007200 0.958500
vt 0.293700 0.958500
vt 0.007200 0.965000
vt 0.293700 0.965000
vt 0.007200 0.970700
vt 0.293700 0.970700
vt 0.007200 0.975500
vt 0.293700 0.975500
vt 0.007200 0.981200
vt 0.293700 0.981200
vt 0.293700 0.987700
vt 0.007200 0.987700
vt 0.007200 0.994800
vt 0.293700 0.994800
vt 0.293800 0.899900
vt 0.577400 0.899900
vt 0.577400 0.088300
vt 0.293800 0.088300
s 1
usemtl Belt.001
f 1/1/1 2/2/2 3/3/3
f 3/3/3 4/4/1 1/1/1
f 4/4/1 5/5/4 6/6/4
f 6/6/4 1/1/1 4/4/1
f 7/7/5 8/8/6 6/6/4
f 6/6/4 5/5/4 7/7/5
f 9/9/7 10/10/8 8/8/6
f 8/8/6 7/7/5 9/9/7
f 11/11/9 12/12/9 10/10/8
f 10/10/8 9/9/7 11/11/9
f 13/13/10 14/14/10 12/12/9
f 12/12/9 11/11/9 13/13/10
f 13/13/10 15/15/11 16/16/12
f 16/16/12 14/14/10 13/13/10
f 15/15/11 17/17/13 18/18/13
f 18/18/13 16/16/12 15/15/11
f 17/17/13 19/19/14 20/20/14
f 20/20/14 18/18/13 17/17/13
f 21/21/15 22/22/15 20/20/14
f 20/20/14 19/19/14 21/21/15
f 23/23/16 22/22/15 21/21/15
f 21/21/15 24/24/17 23/23/16
f 25/25/18 23/23/16 24/24/17
f 24/24/17 26/26/18 25/25/18
f 27/27/19 28/28/19 25/25/18
f 25/25/18 26/26/18 27/27/19
f 28/28/19 27/27/19 29/29/20
f 29/29/20 30/30/20 28/28/19
f 31/31/21 32/32/22 30/30/20
f 30/30/20 29/29/20 31/31/21
f 33/33/23 32/32/22 31/31/21
f 31/31/21 34/34/24 33/33/23
f 35/35/25 36/36/25 33/33/23
f 33/33/23 34/34/24 35/35/25
f 37/37/26 36/36/25 35/35/25
f 35/35/25 38/38/27 37/37/26
f 38/38/27 39/39/28 40/40/28
f 40/40/28 37/37/26 38/38/27
f 41/41/29 42/42/29 40/40/28
f 40/40/28 39/39/28 41/41/29
f 43/43/30 44/44/31 42/42/29
f 42/42/29 41/41/29 43/43/30
f 45/45/32 46/46/32 44/44/31
f 44/44/31 43/43/30 45/45/32
f 47/47/33 48/48/33 46/46/32
f 46/46/32 45/45/32 47/47/33
f 47/47/33 49/49/34 50/50/34
f 50/50/34 48/48/33 47/47/33
f 49/49/34 51/51/35 52/52/36
f 52/52/36 50/50/34 49/49/34
f 51/51/35 53/53/37 54/54/37
f 54/54/37 52/52/36 51/51/35
f 55/55/38 56/56/38 54/54/37
f 54/54/37 53/53/37 55/55/38
f 57/57/39 56/56/38 55/55/38
f 55/55/38 58/58/40 57/57/39
f 59/59/41 60/60/42 57/57/39
f 57/57/39 58/58/40 59/59/41
f 61/61/2 62/62/2 63/63/42
f 63/63/42 64/64/42 61/61/2
